<?xml version="1.0" encoding="UTF-8" standalone="no"?>
<svg width="30px" height="42px" viewBox="0 0 30 42" version="1.1" xmlns="http://www.w3.org/2000/svg" xmlns:xlink="http://www.w3.org/1999/xlink">
    <!-- Generator: Sketch 39.1 (31720) - http://www.bohemiancoding.com/sketch -->
    <title>Page 1</title>
    <desc>Created with Sketch.</desc>
    <defs>
        <polyline id="path-1" points="0 0.317826923 29.7124508 0.317826923 29.7124508 42 0 42"></polyline>
        <polyline id="path-3" points="0 0.317826923 29.7124508 0.317826923 29.7124508 42 0 42"></polyline>
    </defs>
    <g id="ЛК-(Dashboard)" stroke="none" stroke-width="1" fill="none" fill-rule="evenodd">
        <g id="Dashboard-(main)-EDITED" transform="translate(-946.000000, -258.000000)">
            <g id="Page-1" transform="translate(946.000000, 258.000000)">
                <path d="M9.62515328,18.5972365 C9.1883956,19.9097365 8.28255776,20.5478135 6.85551974,20.5478135 C4.55173413,20.5478135 1.70493065,18.8451981 1.15140797,18.4999096 C0.884343381,17.4797942 -0.995209528,9.50948654 4.19012625,5.46012115 C5.7848372,4.21425577 7.13187705,4.32975577 8.21064022,5.82479423 C10.2077662,8.59315962 10.7006842,15.3668712 9.62515328,18.5972365 M3.81680147,4.982775 C-2.02750912,9.54704423 0.572431333,18.6864865 0.599097389,18.7781596 L0.630611819,18.8851788 L0.723943014,18.9461596 C0.861313605,19.0362173 4.12265305,21.1535827 6.85551974,21.1535827 C8.52861273,21.1535827 9.68494989,20.3357942 10.2004936,18.7886596 C11.3293567,15.3975635 10.8501757,8.44737115 8.70234613,5.47062115 C7.42843591,3.70460192 5.69675841,3.51519808 3.81680147,4.982775" id="Fill-1" fill="#232323"></path>
                <path d="M8.07488575,26.0492481 C7.90600073,27.2793635 6.8704689,28.6504212 5.65433514,28.6504212 C5.40787613,28.6504212 5.15980101,28.5938827 4.91738232,28.482825 C2.75015923,27.4897673 2.23017114,24.9305942 2.11906257,24.1325942 C2.50895263,24.0328442 3.35580192,23.8547481 4.44062556,23.8547481 C5.32626184,23.8547481 6.19412075,23.9718635 7.01874833,24.2028635 C8.15730811,24.5214981 8.13629849,25.6001712 8.07488575,26.0492481 M7.18197691,23.6193058 C6.30401722,23.3737673 5.38161411,23.2489788 4.44062556,23.2489788 C2.83621787,23.2489788 1.73927329,23.6084019 1.69321374,23.6237481 L1.47140064,23.6976519 L1.48675383,23.9306712 C1.4968546,24.0841327 1.7627071,27.7038058 4.66486285,29.0332673 C4.98727971,29.181075 5.32020137,29.2561904 5.65433514,29.2561904 C7.20460266,29.2561904 8.46800806,27.6404019 8.67527604,26.1316327 C8.84900944,24.8688058 8.29063839,23.9294596 7.18197691,23.6193058" id="Fill-3" fill="#232323"></path>
                <path d="M22.4049818,32.5624788 C21.9189323,32.7224019 19.8648379,33.3572481 17.919832,33.3572481 C15.5655425,33.3572481 14.2985008,32.4421327 14.1526455,30.6369404 C13.9061865,27.5810365 15.5958448,21.736575 18.0648792,19.0619019 C18.8373867,18.2251327 19.6022177,17.8006904 20.3379584,17.8006904 C21.097941,17.8006904 21.8470148,18.2626904 22.5649781,19.1741712 C26.6347839,24.3429981 22.9071925,31.6360558 22.4049818,32.5624788 M17.6192328,18.6511904 C15.0508068,21.4336904 13.2920592,27.5099596 13.5482149,30.6858058 C13.7215443,32.829825 15.2330248,33.9630173 17.919832,33.9630173 C20.2365466,33.9630173 22.6138659,33.1327096 22.7140656,33.097575 L22.8187097,33.0604212 L22.87487,32.9639019 C22.9229497,32.8815173 27.6282965,24.6252865 23.0409268,18.7994019 C21.4021765,16.7183827 19.4450496,16.6723442 17.6192328,18.6511904" id="Fill-5" fill="#232323"></path>
                <path d="M16.366211,41.3593385 C16.2454057,41.3823577 16.1254084,41.3940692 16.0094515,41.3940692 C14.7125115,41.3940692 13.8862678,39.9466846 13.8648541,38.6055115 C13.8579856,38.1705692 13.9440443,36.7474154 15.3468404,36.7021846 C15.4462321,36.6989538 15.5440076,36.6973385 15.6417831,36.6973385 C17.8376924,36.6973385 19.54432,37.4941269 20.1220846,37.8022615 C19.8247176,38.5509923 18.7132279,40.9106654 16.366211,41.3593385 M15.3270429,36.0968192 C14.0466682,36.1380115 13.2349696,37.1266269 13.2592115,38.6156077 C13.2850694,40.2431077 14.3440351,41.9998385 16.0090475,41.9998385 L16.0094515,41.9998385 C16.1633874,41.9998385 16.3221716,41.9844923 16.4797437,41.9546077 C19.6154295,41.3548962 20.737424,37.9028192 20.7838876,37.7562231 L20.853785,37.5333 L20.6566178,37.4089154 C20.5677309,37.3531846 18.3799022,35.99505 15.3270429,36.0968192" id="Fill-7" fill="#232323"></path>
                <g id="Group-11">
                    <mask id="mask-2" fill="white">
                        <use xlink:href="#path-1"></use>
                    </mask>
                    <g id="Clip-10"></g>
                    <path d="M19.8515857,6.89547115 C19.7267401,4.80839423 19.894413,2.74999038 20.2895555,0.697644231 C20.3630891,0.316009615 19.7788601,0.153259615 19.7049224,0.536509615 C19.3000832,2.63974038 19.1174611,4.75468269 19.245539,6.89547115 C19.2689728,7.28356731 19.8750195,7.28599038 19.8515857,6.89547115" id="Fill-9" fill="#69CF66" mask="url(#mask-2)"></path>
                </g>
                <path d="M24.3383516,5.55013846 C24.3023929,4.26711923 24.524206,2.84719615 24.7759174,1.59446538 C24.8526833,1.21323462 24.2688583,1.05048462 24.1916883,1.43333077 C23.9290681,2.74138846 23.69473,4.21300385 23.7323049,5.55013846 C23.7432137,5.93985 24.3492605,5.94106154 24.3383516,5.55013846" id="Fill-12" fill="#69CF66"></path>
                <g id="Group-16">
                    <mask id="mask-4" fill="white">
                        <use xlink:href="#path-3"></use>
                    </mask>
                    <g id="Clip-15"></g>
                    <path d="M29.157514,7.19104615 C26.6307032,12.5819885 18.9343138,14.3492192 15.772366,8.53666154 C15.5857036,8.19298846 15.0620792,8.49910385 15.2491457,8.84237308 C18.6086647,15.0192 26.953524,13.3153731 29.6807343,7.49675769 C29.845579,7.14541154 29.3231667,6.83768077 29.157514,7.19104615" id="Fill-14" fill="#69CF66" mask="url(#mask-4)"></path>
                </g>
            </g>
        </g>
    </g>
</svg>