<?xml version="1.0" encoding="UTF-8" standalone="no"?>
<svg width="38px" height="42px" viewBox="0 0 38 42" version="1.1" xmlns="http://www.w3.org/2000/svg" xmlns:xlink="http://www.w3.org/1999/xlink">
    <!-- Generator: Sketch 39.1 (31720) - http://www.bohemiancoding.com/sketch -->
    <title>Page 1</title>
    <desc>Created with Sketch.</desc>
    <defs>
        <polygon id="path-1" points="0 0.364518519 37.1845185 0.364518519 37.1845185 42 0 42"></polygon>
    </defs>
    <g id="ЛК-(Dashboard)" stroke="none" stroke-width="1" fill="none" fill-rule="evenodd">
        <g id="Dashboard-(main)-EDITED" transform="translate(-630.000000, -258.000000)">
            <g id="Page-1" transform="translate(630.000000, 258.000000)">
                <g id="Group-3">
                    <mask id="mask-2" fill="white">
                        <use xlink:href="#path-1"></use>
                    </mask>
                    <g id="Clip-2"></g>
                    <path d="M35.225037,31.2626222 C32.145037,37.6357333 25.5821481,41.7532889 18.5054074,41.7527704 C17.7208889,41.7527704 16.9280741,41.7019556 16.1487407,41.601363 C5.67051852,40.2516593 0.224,32.6766222 0.259259259,25.8918074 L0.259259259,25.8912889 C0.224518519,32.6761037 5.67103704,40.2511407 16.1487407,41.6008444 C16.9280741,41.701437 17.7208889,41.7527704 18.5054074,41.7527704 C25.5821481,41.7532889 32.145037,37.6357333 35.225037,31.2626222 C35.9354074,29.7931407 36.4254074,28.2759556 36.6908889,26.7810667 C36.4254074,28.2759556 35.9354074,29.7936593 35.225037,31.2626222 L35.225037,31.2626222 Z M5.63681481,14.3708444 C7.91207407,12.0281778 10.9371111,10.2071407 14.3857778,9.08091852 C14.5071111,9.04151111 14.5594815,8.95543704 14.5703704,8.86625185 C14.561037,8.9601037 14.5107407,9.05343704 14.3857778,9.0944 C10.9371111,10.2206222 7.91207407,12.0541037 5.63681481,14.3967704 C2.60348148,17.5198074 0.904296296,21.3832889 0.799555556,25.3535852 C0.890296296,21.3677333 2.59,17.507363 5.63681481,14.3708444 L5.63681481,14.3708444 Z M36.2294074,25.9960296 C36.3123704,25.2981037 36.3507407,24.6307704 36.3481481,23.9924741 C36.3533333,24.6478815 36.3144444,25.333363 36.2294074,26.0484 C35.7793333,29.8636593 33.8141481,33.4725481 30.6962963,36.4011407 C33.8141481,33.4725481 35.7793333,29.8112889 36.2294074,25.9960296 L36.2294074,25.9960296 Z M18.5417037,11.2146222 C18.5411852,11.2130667 18.5406667,11.2109926 18.5401481,11.209437 C17.6628148,8.3804 16.6672593,5.54617778 15.5804444,2.78558519 C15.538963,2.67928889 15.468963,2.59217778 15.3808148,2.53202963 L19.8494074,1.58832593 C18.9539259,4.63462222 18.5411852,7.78980741 18.6225926,10.971437 C18.6251852,11.0538815 18.6438519,11.1311407 18.6780741,11.1990667 C18.6324444,11.2042519 18.5873333,11.209437 18.5417037,11.2146222 L18.5417037,11.2146222 Z M17.8282222,11.5687704 L17.6773333,11.6061037 C14.0181481,12.2309185 10.7037778,13.8124 8.09251852,16.179437 C8.01733333,16.247363 8.00281481,16.3168444 8.01007407,16.3738815 C8.0022963,16.3168444 8.01681481,16.2468444 8.09251852,16.1784 C10.7037778,13.811363 14.0181481,12.2304 17.6773333,11.6055852 L17.8282222,11.5687704 L17.8282222,11.5687704 Z M36.2968148,19.5669185 C34.4145926,15.1605481 29.9351111,13.0190667 27.4327407,12.1344741 C24.9977778,11.2747704 22.3538519,10.9237333 19.6653333,11.1083259 C19.6757037,11.0658074 19.6803704,11.0175852 19.6798519,10.9641778 C19.5927407,7.58965926 20.0796296,4.24832593 21.127037,1.03299259 C21.1773333,0.878992593 21.1534815,0.723437037 21.0601481,0.594325926 C20.9351852,0.422177778 20.6997778,0.330918519 20.4866667,0.375511111 L14.6828889,1.60077037 C14.4241481,1.65521481 14.2685926,1.86832593 14.2960741,2.13121481 C14.3162963,2.32462222 14.4428148,2.5284 14.6491852,2.60462222 C14.6336296,2.62121481 14.6196296,2.63936296 14.6061481,2.65802963 C14.5221481,2.78195556 14.5097037,2.93647407 14.5708889,3.09254815 C15.6338519,5.79402963 16.6117778,8.57121481 17.4880741,11.3758815 C13.8377037,12.0261037 10.5311111,13.6184741 7.9182963,15.9870667 C7.75911111,16.1312148 7.70881481,16.3308444 7.78192593,16.5211407 C7.91103704,16.8571407 8.37562963,16.9971407 8.65614815,16.7430667 C11.9337037,13.7719556 16.31,12.1355111 20.9782222,12.1355111 C24.3273333,12.1355111 27.5540741,12.999363 30.31,14.6326963 C32.3285926,15.8284 33.9214815,17.3818815 34.917037,19.1246222 C35.9447407,20.9238815 36.2994074,23.2432148 35.9722222,26.0178074 C35.5288889,29.7724 33.5927407,33.4549185 30.518963,36.3420296 C27.3632593,39.305363 23.1077778,40.9630667 18.536,40.9630667 L18.534963,40.9630667 C18.1191111,40.9630667 17.7032593,40.9428444 17.2874074,40.9184741 C16.9659259,40.8972148 16.6444444,40.8707704 16.3245185,40.8329185 C16.3193333,40.8324 16.3136296,40.8318815 16.308963,40.831363 C13.1122963,40.455437 10.0011852,39.2825481 7.36814815,37.4615111 C3.42585185,34.7361778 1.18585185,30.7124741 1.05933333,26.1546963 C0.944740741,21.9780296 2.63562963,17.8641037 5.82296296,14.583437 C8.06866667,12.2708444 11.0579259,10.4570667 14.4656296,9.34380741 C14.7637778,9.24632593 14.8607407,8.97202963 14.8244444,8.7444 C14.7731111,8.42188148 14.4791111,8.2264 14.1731852,8.32647407 C5.60466667,11.1249185 0.0414814815,18.0191407 0,25.8907704 C-0.0217777778,30.0492889 1.69814815,33.8266963 4.97259259,36.8159556 C7.89703704,39.4852889 11.9585926,41.3172148 16.1155556,41.8528444 C16.9057778,41.9544741 17.71,42.0001037 18.5054074,42.0001037 L18.5064444,42.0001037 C25.6817037,42.0001037 32.3358519,37.8306963 35.4578519,31.369437 C37.4142222,27.3224 37.7279259,22.9144741 36.2968148,19.5669185 L36.2968148,19.5669185 Z" id="Fill-1" fill="#232323" mask="url(#mask-2)"></path>
                </g>
                <path d="M18.3832963,19.5876074 C18.1675926,22.6427185 17.9518889,25.6978296 17.7367037,28.7534593 C17.718037,29.0189407 18.0042593,29.1978296 18.2412222,29.1376815 C21.117963,28.4096815 23.9947037,27.6816815 26.871963,26.9536815 C27.3702593,26.8276815 27.1587037,26.0587185 26.6598889,26.1847185 L18.5704815,28.2318296 C18.7737407,25.3504222 18.9775185,22.4690148 19.1802593,19.5876074 C19.2165556,19.0742741 18.4190741,19.0779037 18.3832963,19.5876074" id="Fill-4" fill="#E64A19"></path>
                <path d="M6.21382222,30.0740741 C6.21382222,30.3364444 6.39063704,30.5925926 6.72871111,30.5925926 L6.82671111,30.5925926 L10.4563407,30.5925926 L10.5558963,30.5925926 C10.8939704,30.5925926 11.0713037,30.3364444 11.0713037,30.0740741 C11.0713037,29.8117037 10.8939704,29.5555556 10.5558963,29.5555556 L10.4563407,29.5555556 L6.82671111,29.5555556 L6.72871111,29.5555556 C6.39063704,29.5555556 6.21382222,29.8117037 6.21382222,30.0740741" id="Fill-6" fill="#232323"></path>
                <path d="M30.2089926,26.8287704 C30.2888444,26.8287704 30.3681778,26.8106222 30.4449185,26.7748444 L33.3491407,25.4101037 C33.5643259,25.3089926 33.6669926,25.1067704 33.6166963,24.8827704 C33.5415111,24.5457333 33.1567704,24.3367704 32.8358074,24.4871407 L29.9321037,25.851363 C29.7169185,25.9529926 29.6142519,26.1546963 29.6640296,26.3792148 C29.7215852,26.635363 29.9559556,26.8287704 30.2089926,26.8287704" id="Fill-8" fill="#232323"></path>
                <path d="M20.4108074,36.6132667 C20.3994,36.623637 20.3848815,36.6329704 20.3755481,36.6443778 C20.3745111,36.6454148 20.3739926,36.6469704 20.3729556,36.6480074 C20.3537704,36.6708222 20.3376963,36.6951926 20.3268074,36.721637 C20.3154,36.7506741 20.3081407,36.7817852 20.3081407,36.8149704 L20.3081407,38.2377852 L20.3081407,38.3705259 C20.3081407,38.513637 20.4237704,38.6297852 20.5674,38.6297852 C20.5793259,38.6297852 20.5902148,38.6240815 20.6021407,38.6225259 C20.7499185,38.7008222 20.9241407,38.7448963 21.0527333,38.7506 C21.0750296,38.7547481 21.0962889,38.7547481 21.1191037,38.7506 C21.3892519,38.737637 21.8636963,38.5628963 21.8636963,38.2377852 L21.8636963,36.8149704 C21.8636963,36.3763037 20.7540667,36.3104519 20.4108074,36.6132667" id="Fill-10" fill="#232323"></path>
                <path d="M19.7894667,15.7888889 C20.051837,15.7888889 20.3079852,15.6115556 20.3079852,15.2734815 L20.3079852,14.5185185 C20.3079852,13.6982222 19.6774667,13.5374815 19.4062815,14.015037 C19.3207259,14.0788148 19.2709481,14.1768148 19.2709481,14.3168148 L19.2709481,15.2734815 C19.2709481,15.3595556 19.2870222,15.4259259 19.3243556,15.482963 C19.405763,15.6831111 19.5888,15.7888889 19.7894667,15.7888889" id="Fill-12" fill="#232323"></path>
            </g>
        </g>
    </g>
</svg>