<?xml version="1.0" encoding="UTF-8" standalone="no"?>
<svg width="54px" height="42px" viewBox="0 0 54 42" version="1.1" xmlns="http://www.w3.org/2000/svg" xmlns:xlink="http://www.w3.org/1999/xlink">
    <!-- Generator: Sketch 39.1 (31720) - http://www.bohemiancoding.com/sketch -->
    <title>Page 1</title>
    <desc>Created with Sketch.</desc>
    <defs>
        <polyline id="path-1" points="0 0.265341176 53.9640706 0.265341176 53.9640706 42 0 42"></polyline>
        <polyline id="path-3" points="0 0.265341176 53.9640706 0.265341176 53.9640706 42 0 42"></polyline>
    </defs>
    <g id="ЛК-(Dashboard)" stroke="none" stroke-width="1" fill="none" fill-rule="evenodd">
        <g id="Dashboard-(main)-EDITED" transform="translate(-1241.000000, -258.000000)">
            <g id="Page-1" transform="translate(1241.000000, 258.000000)">
                <g id="Group-3">
                    <mask id="mask-2" fill="white">
                        <use xlink:href="#path-1"></use>
                    </mask>
                    <g id="Clip-2"></g>
                    <path d="M10.43952,27.2315647 C12.3720141,25.4038235 14.9231435,24.4580824 17.6353553,23.9931176 C17.7786494,24.1102235 17.9881553,24.0543882 18.1121788,23.9145529 C21.1445788,23.4594706 24.3430024,23.5736118 27.0873318,23.7312353 C32.7474494,24.0563647 38.7633318,25.0525059 44.0098729,27.2893765 C44.4446965,27.4746706 44.8226965,26.8362706 44.3844141,26.6494941 C38.7929788,24.2658706 32.4949553,23.3008588 26.4627671,22.9539882 C23.8671671,22.8052588 20.8950494,22.7588118 18.0439906,23.1906706 C16.6574965,20.1493765 13.9946965,15.0589765 10.0793082,15.6380824 C9.60742588,15.7077529 9.80853176,16.4217529 10.2759671,16.3525765 C13.5964376,15.8619176 16.0309553,20.5718471 17.2914494,23.3181529 C14.5515671,23.8226471 11.9693082,24.8108824 9.99728471,26.6376353 C9.92415529,23.9358 9.62422588,21.2571882 8.88848471,18.6403412 C8.75952,18.1813059 8.04453176,18.3764824 8.17399059,18.8374941 C9.80507294,24.6399176 9.21954353,30.8163882 8.85784941,36.7512353 C8.82375529,37.3135412 9.05352,40.1349529 8.21796706,40.1473059 C6.76872,40.1695412 5.34220235,40.2891176 3.91370824,40.5258 C3.77436706,40.5490235 1.90215529,41.1464118 1.87102588,40.8968824 C1.77714353,40.1478 1.69462588,39.3977294 1.61210824,38.6476588 C1.43719059,37.0595647 1.29784941,35.4680118 1.17086118,33.8759647 C0.69552,27.9139412 0.557167059,21.8857059 1.16344941,15.9286235 C1.39864941,13.6191176 1.92784941,9.47692941 4.94641412,9.20763529 C7.71989647,8.96057647 8.91022588,12.9891176 9.27142588,14.9967176 C9.35592,15.4666235 10.06992,15.267 9.98641412,14.7995647 C9.53232,12.2746235 8.44773176,9.36624706 5.74935529,8.5554 C3.64243765,7.92144706 1.88140235,9.98685882 1.26573176,11.7419647 C-0.231938824,16.0121294 -0.00612705882,21.0778235 0.0378494118,25.5382235 C0.0912141176,30.9137294 0.554696471,36.2892353 1.21977882,41.6207647 C1.24695529,41.8347176 1.44114353,42.0748588 1.68919059,41.9780118 C4.06392,41.0515412 6.51573176,40.9146706 9.03820235,40.8761294 C9.24622588,40.8731647 9.40088471,40.7096118 9.40879059,40.5055412 C9.57629647,36.1548353 10.0709082,31.6914706 10.0081553,27.2814706 C10.1366259,27.3550941 10.3011671,27.3625059 10.43952,27.2315647" id="Fill-1" fill="#232323" mask="url(#mask-2)"></path>
                </g>
                <g id="Group-6">
                    <mask id="mask-4" fill="white">
                        <use xlink:href="#path-3"></use>
                    </mask>
                    <g id="Clip-5"></g>
                    <path d="M51.7140565,21.9500894 C51.6488329,21.7914776 51.5381506,21.6832659 51.3568094,21.6778306 C45.6591388,21.5192188 44.7717035,27.8103247 44.7623153,33.3637129 C33.4860565,37.7524659 21.8243859,33.6488188 10.1775388,34.2807953 C9.70219765,34.3064894 9.69972706,35.04816 10.1775388,35.0219718 C21.8273506,34.3895012 33.4875388,38.4467012 44.7662682,34.1528188 C44.7914682,36.2641835 44.9189506,38.2154541 44.9238918,39.5895953 C44.9258682,40.0674071 45.6670447,40.0679012 45.6650682,39.5895953 C45.6581506,37.6368424 45.5761271,35.6905129 45.5795859,33.7427012 C45.6551859,33.61176 45.6502447,33.4496894 45.5830447,33.3291247 C45.5904565,32.4387247 45.6171388,31.5478306 45.6818682,30.6559482 C45.8162682,28.8193129 46.1379388,26.9639012 46.8830682,25.2700659 C47.1439624,24.6771247 50.4906212,20.9119482 51.1566918,22.5282071 C53.2695388,27.6596188 56.0622918,40.3801835 46.94088,39.7679718 C46.4635624,39.7358541 46.4665271,40.4770306 46.94088,40.5091482 C56.9215624,41.1786776 54.0245506,27.5603012 51.7140565,21.9500894" id="Fill-4" fill="#232323" mask="url(#mask-4)"></path>
                </g>
                <path d="M35.2397788,8.31357882 C35.0870965,5.75997882 35.2921553,3.24146118 35.7754024,0.730355294 C35.8653318,0.263414118 35.1508376,0.0642847059 35.0604141,0.533202353 C34.5653082,3.10656706 34.3419671,5.69426118 34.4986024,8.31357882 C34.5272612,8.78842588 35.2684376,8.79139059 35.2397788,8.31357882" id="Fill-7" fill="#E64A19"></path>
                <path d="M40.7269553,6.66752471 C40.6829788,5.09771294 40.9542494,3.36039529 41.2620847,1.82764235 C41.3559671,1.36119529 40.6419671,1.16206588 40.5475906,1.63048941 C40.2264141,3.23093647 39.9398259,5.03150118 39.9857788,6.66752471 C39.99912,7.14434824 40.7402965,7.14583059 40.7269553,6.66752471" id="Fill-9" fill="#E64A19"></path>
                <path d="M30.2508212,17.37456 C33.3410329,10.7785835 42.7539741,8.61583059 46.6204447,15.72816 C46.8492212,16.1486541 47.4891035,15.7741129 47.2608212,15.3541129 C43.1517388,7.79707765 32.9467271,9.88126588 29.6109388,17.0005129 C29.4093388,17.4303953 30.0482329,17.8069129 30.2508212,17.37456" id="Fill-11" fill="#E64A19"></path>
            </g>
        </g>
    </g>
</svg>