<?xml version="1.0" encoding="UTF-8" standalone="no"?>
<svg width="35px" height="42px" viewBox="0 0 35 42" version="1.1" xmlns="http://www.w3.org/2000/svg" xmlns:xlink="http://www.w3.org/1999/xlink">
    <!-- Generator: Sketch 39.1 (31720) - http://www.bohemiancoding.com/sketch -->
    <title>Page 1 Copy</title>
    <desc>Created with Sketch.</desc>
    <defs>
        <polyline id="path-1" points="0 0.419493976 34.461253 0.419493976 34.461253 42 0 42"></polyline>
        <polyline id="path-3" points="0 0.419493976 34.461253 0.419493976 34.461253 42 0 42"></polyline>
    </defs>
    <g id="ЛК-(Dashboard)" stroke="none" stroke-width="1" fill="none" fill-rule="evenodd">
        <g id="Главная---Desktop" transform="translate(-309.000000, -238.000000)">
            <g id="Page-1-Copy" transform="translate(309.000000, 238.000000)">
                <g id="Group-3">
                    <mask id="mask-2" fill="white">
                        <use xlink:href="#path-1"></use>
                    </mask>
                    <g id="Clip-2"></g>
                    <path d="M30.2938916,16.7052723 C22.9783012,10.2732 11.3751687,11.6070795 6.41208434,20.1037301 C6.30480723,20.3071518 6.19753012,20.5110795 6.09025301,20.7145012 C5.86254217,21.1471518 6.51733735,21.5307181 6.74555422,21.0975614 C11.1525181,12.7314651 21.2881807,11.3515373 28.7753133,16.4841398 C36.9794819,22.1085976 34.0293614,33.540694 26.8235783,38.5331277 C19.9603735,43.2882361 9.50338554,41.7398024 3.99075904,35.6928145 C1.13273494,32.5579952 0.321072289,28.5983566 1.02545783,24.5263807 C1.67266265,20.7843325 3.82225301,15.8738747 8.1669759,15.6011277 C8.65326506,15.5707663 8.6563012,14.8112241 8.1669759,14.8420916 C4.18608434,15.0920675 2.0243494,18.6494169 0.858975904,22.0893687 C-0.541698795,26.2245976 -0.260855422,30.3861398 1.93124096,34.1600675 C6.74403614,42.4477301 18.8344699,44.042212 26.6778434,39.5234169 C34.6092651,34.9545253 37.5983494,23.1277301 30.2938916,16.7052723" id="Fill-1" fill="#232323" mask="url(#mask-2)"></path>
                </g>
                <path d="M14.217506,28.4406795 C14.7139157,26.1296675 14.9011446,23.7235229 15.5296265,21.4443904 C15.6596747,20.9717639 14.9274578,20.7713783 14.7974096,21.2424867 C14.1689277,23.5216193 13.9822048,25.9277639 13.4857952,28.2387759 C13.3830723,28.7159566 14.1147831,28.9193783 14.217506,28.4406795" id="Fill-4" fill="#69CF66"></path>
                <path d="M19.0412819,27.9024217 C19.1885349,25.8327831 19.7082217,23.8501807 20.3392337,21.881747 C20.4895229,21.4141807 19.756294,21.2153133 19.6075229,21.6798434 C18.9552578,23.7140602 18.434053,25.7654819 18.2822458,27.9024217 C18.2473301,28.391241 19.0068723,28.3876988 19.0412819,27.9024217" id="Fill-6" fill="#69CF66"></path>
                <path d="M8.49482892,31.6464434 C8.25952771,31.2173349 7.60372048,31.5998892 7.83952771,32.0295036 C11.3842265,38.4924434 20.2654554,36.3180578 25.0519373,32.5436241 C25.4360096,32.2405157 24.8950699,31.7071663 24.5150458,32.0067325 C20.109094,35.4816 11.7784193,37.6332145 8.49482892,31.6464434" id="Fill-8" fill="#69CF66"></path>
                <path d="M6.35217108,6.94786265 C7.55903855,7.40682651 8.81094217,7.69576627 10.0557614,8.03277831 C10.5516651,8.1668747 9.66359277,11.2151639 9.55024337,11.6225133 C9.41867711,12.0946337 10.150894,12.2950193 10.2824602,11.8239108 C10.6376892,10.546706 10.8011349,9.23256145 11.1103157,7.94473012 C11.1594,7.73979036 11.0480747,7.5388988 10.845159,7.47766988 C9.5780747,7.09562169 8.28619518,6.80870602 7.03530361,6.38010361 C7.90465301,4.99562169 8.33376145,3.52410361 8.56602651,1.87800723 C8.61966506,1.49444096 8.05797831,1.15388675 7.87226747,1.5855253 C7.6587253,2.08041687 7.54284578,2.36986265 7.36421928,2.8768988 C7.29691807,3.06766988 7.38446024,3.2088506 7.51906265,3.2822241 C7.23720723,4.38080241 6.81012289,5.41005542 6.12547229,6.3902241 C5.97315904,6.60781446 6.14115904,6.86740482 6.35217108,6.94786265" id="Fill-10" fill="#232323"></path>
                <g id="Group-14">
                    <mask id="mask-4" fill="white">
                        <use xlink:href="#path-3"></use>
                    </mask>
                    <g id="Clip-13"></g>
                    <path d="M17.0990096,3.318 C18.323588,3.98746988 20.0774675,4.83455422 19.1160217,6.41385542 C18.491588,7.44057831 17.6343831,8.3013253 17.022094,9.34525301 C16.7741422,9.76879518 17.4299494,10.1503373 17.6779012,9.72831325 C18.4328892,8.44098795 19.8492506,7.28016867 20.2090337,5.79701205 C20.5333952,4.46009639 18.9991301,3.49814458 17.9212988,2.90204819 C18.9621904,1.96640964 20.4838048,1.38144578 21.8232506,1.15727711 C22.3054916,1.07681928 22.1005518,0.345614458 21.621853,0.425566265 C20.0066241,0.695277108 18.1232024,1.48973494 17.022094,2.72190361 C16.8642145,2.89850602 16.8743349,3.19503614 17.0990096,3.318" id="Fill-12" fill="#232323" mask="url(#mask-4)"></path>
                </g>
                <path d="M27.4784241,10.9496024 C27.6555325,11.3994578 28.3897735,11.2036265 28.210641,10.7476988 C27.7142313,9.48618072 27.3250988,8.20846988 27.0230024,6.8923012 C28.5537253,6.88622892 30.0120867,6.70001205 31.4006169,5.97184337 C31.5767133,5.87974699 31.6465446,5.6196506 31.5367373,5.45266265 C30.7215325,4.21543373 29.9655325,2.95290361 28.987388,1.83509639 C28.6645446,1.4656988 28.1301831,2.00461446 28.4504964,2.37148193 C29.2935325,3.33545783 29.9609783,4.4163253 30.6542313,5.48606024 C29.3517253,6.06596386 27.9758458,6.15704819 26.5448096,6.13124096 C26.2862313,6.12668675 26.1293639,6.37615663 26.1789542,6.61196386 C26.4926892,8.10068675 26.9217976,9.53374699 27.4784241,10.9496024" id="Fill-15" fill="#232323"></path>
            </g>
        </g>
    </g>
</svg>