<?xml version="1.0" encoding="UTF-8" standalone="no"?>
<svg width="22px" height="21px" viewBox="0 0 22 21" version="1.1" xmlns="http://www.w3.org/2000/svg" xmlns:xlink="http://www.w3.org/1999/xlink">
    <!-- Generator: Sketch 39.1 (31720) - http://www.bohemiancoding.com/sketch -->
    <title>Logout</title>
    <desc>Created with Sketch.</desc>
    <defs></defs>
    <g id="ЛК-(Dashboard)" stroke="none" stroke-width="1" fill="none" fill-rule="evenodd">
        <g id="Dashboard-(main)" transform="translate(-1175.000000, -82.000000)" fill="#000000">
            <g id="Page-1" transform="translate(1175.000000, 82.000000)">
                <g id="Fill-1-+-Fill-2-+-Fill-3">
                    <polygon id="Fill-1" points="0 0.0521123077 0 20.9999354 14.3171384 20.9999354 14.3171384 20.3062892 0.673899371 20.3062892 0.673899371 0.744466154 14.3171384 0.744466154 14.3171384 0.0521123077"></polygon>
                    <g id="Fill-2-+-Fill-3" transform="translate(6.000000, 5.000000)">
                        <polygon id="Fill-2" points="10.575952 0.615333231 15.0813836 5.28259938 0.376523728 5.28259938 0.376523728 5.75383938 15.0803545 5.75383938 10.5758376 10.4207502 10.8981933 10.7548117 15.9527387 5.51869323 10.8980789 0.282337846"></polygon>
                        <polygon id="Fill-3" points="10.575952 0.615333231 15.0813836 5.28259938 0.376523728 5.28259938 0.376523728 5.75383938 15.0803545 5.75383938 10.5758376 10.4207502 10.8981933 10.7548117 15.9527387 5.51869323 10.8980789 0.282337846"></polygon>
                    </g>
                </g>
            </g>
        </g>
    </g>
</svg>